<svg id="visual" viewBox="0 0 1920 300" width="1920" height="300" xmlns="http://www.w3.org/2000/svg" xmlns:xlink="http://www.w3.org/1999/xlink" version="1.1"><path d="M0 236L113 250L226 174L339 183L452 216L565 203L678 163L791 198L904 225L1016 155L1129 175L1242 199L1355 213L1468 224L1581 195L1694 236L1807 222L1920 200L1920 301L1807 301L1694 301L1581 301L1468 301L1355 301L1242 301L1129 301L1016 301L904 301L791 301L678 301L565 301L452 301L339 301L226 301L113 301L0 301Z" fill="#312e81"></path><path d="M0 265L113 212L226 221L339 193L452 240L565 203L678 209L791 195L904 236L1016 218L1129 255L1242 203L1355 214L1468 265L1581 266L1694 253L1807 233L1920 187L1920 301L1807 301L1694 301L1581 301L1468 301L1355 301L1242 301L1129 301L1016 301L904 301L791 301L678 301L565 301L452 301L339 301L226 301L113 301L0 301Z" fill="#2a276e"></path><path d="M0 224L113 270L226 219L339 221L452 284L565 247L678 235L791 229L904 236L1016 276L1129 257L1242 217L1355 245L1468 276L1581 210L1694 234L1807 266L1920 228L1920 301L1807 301L1694 301L1581 301L1468 301L1355 301L1242 301L1129 301L1016 301L904 301L791 301L678 301L565 301L452 301L339 301L226 301L113 301L0 301Z" fill="#24215c"></path><path d="M0 282L113 242L226 299L339 262L452 250L565 258L678 265L791 261L904 290L1016 280L1129 243L1242 295L1355 295L1468 248L1581 243L1694 258L1807 261L1920 263L1920 301L1807 301L1694 301L1581 301L1468 301L1355 301L1242 301L1129 301L1016 301L904 301L791 301L678 301L565 301L452 301L339 301L226 301L113 301L0 301Z" fill="#1e1b4b"></path></svg>